<svg xmlns="http://www.w3.org/2000/svg" viewBox="0 0 500 500">
  <defs>
    <linearGradient id="grad1" x1="0%" y1="0%" x2="100%" y2="100%">
      <stop offset="0%" style="stop-color:#ff6b6b;stop-opacity:1" />
      <stop offset="100%" style="stop-color:#ffd93d;stop-opacity:1" />
    </linearGradient>
    <linearGradient id="grad2" x1="0%" y1="0%" x2="100%" y2="100%">
      <stop offset="0%" style="stop-color:#667eea;stop-opacity:1" />
      <stop offset="100%" style="stop-color:#764ba2;stop-opacity:1" />
    </linearGradient>
  </defs>
  
  <!-- Shopping Bag -->
  <path d="M150 150 L150 180 Q150 200 170 200 L330 200 Q350 200 350 180 L350 150 L380 150 L380 400 Q380 420 360 420 L140 420 Q120 420 120 400 L120 150 Z" fill="url(#grad1)" opacity="0.9"/>
  
  <!-- Bag Handle -->
  <path d="M200 150 L200 120 Q200 80 250 80 Q300 80 300 120 L300 150" stroke="url(#grad2)" stroke-width="8" fill="none" stroke-linecap="round"/>
  
  <!-- Shopping Items -->
  <rect x="160" y="240" width="60" height="80" rx="5" fill="#fff" opacity="0.8"/>
  <rect x="240" y="220" width="60" height="100" rx="5" fill="#fff" opacity="0.8"/>
  <rect x="160" y="340" width="140" height="50" rx="5" fill="#fff" opacity="0.8"/>
  
  <!-- Decorative Elements -->
  <circle cx="420" cy="100" r="30" fill="#ffd93d" opacity="0.6"/>
  <circle cx="80" cy="300" r="40" fill="#ff6b6b" opacity="0.5"/>
  <circle cx="400" cy="350" r="25" fill="#667eea" opacity="0.6"/>
  
  <!-- Stars -->
  <path d="M 450 200 L 455 210 L 465 210 L 457 217 L 460 227 L 450 220 L 440 227 L 443 217 L 435 210 L 445 210 Z" fill="#ffd93d"/>
  <path d="M 60 150 L 65 160 L 75 160 L 67 167 L 70 177 L 60 170 L 50 177 L 53 167 L 45 160 L 55 160 Z" fill="#ff6b6b"/>
</svg>
